<?xml version="1.0" encoding="UTF-8"?>
<svg width="19px" height="19px" viewBox="0 0 19 19" version="1.1" xmlns="http://www.w3.org/2000/svg" xmlns:xlink="http://www.w3.org/1999/xlink">
    <title>Total Appointments</title>
    <g id="Page-1" stroke="none" stroke-width="1" fill="none" fill-rule="evenodd">
        <g id="Group-8-Copy" transform="translate(0.500000, 0.500000)">
            <path d="M3.5,2.1875 L12.125,2.1875 C13.7818542,2.1875 15.125,3.53064575 15.125,5.1875 L15.125,6.6875 L15.125,6.6875 L0.5,6.6875 L0.5,5.1875 C0.5,3.53064575 1.84314575,2.1875 3.5,2.1875 Z M13.4375,18.5 C16.2334415,18.5 18.5,16.2334415 18.5,13.4375 C18.5,10.6415585 16.2334415,8.375 13.4375,8.375 C10.6415585,8.375 8.375,10.6415585 8.375,13.4375 C8.375,16.2334415 10.6415585,18.5 13.4375,18.5 Z" id="Combined-Shape" fill="#CCC7F0"></path>
            <path d="M13.4375,8.375 C16.2334415,8.375 18.5,10.6415585 18.5,13.4375 C18.5,16.2334415 16.2334415,18.5 13.4375,18.5 C10.6415585,18.5 8.375,16.2334415 8.375,13.4375 C8.375,10.6415585 10.6415585,8.375 13.4375,8.375 Z M13.4375,9.375 C11.1938432,9.375 9.375,11.1938432 9.375,13.4375 C9.375,15.6811568 11.1938432,17.5 13.4375,17.5 C15.6811568,17.5 17.5,15.6811568 17.5,13.4375 C17.5,11.1938432 15.6811568,9.375 13.4375,9.375 Z M11.1875,0 C11.4329599,0 11.6371084,0.176875161 11.6794443,0.410124368 L11.6875,0.5 L11.687,1.687 L12.125,1.6875 C13.9935634,1.6875 15.5201264,3.1517776 15.6198211,4.9954648 L15.625,5.1875 L15.625,7.1875 L1,7.187 L1,13.4375 C1,14.9686108 2.19688163,16.220175 3.70607191,16.3076195 L3.875,16.3125 L7.27517524,16.3125 C7.55131761,16.3125 7.77517524,16.5363576 7.77517524,16.8125 C7.77517524,17.0579599 7.59830008,17.2621084 7.36505087,17.3044443 L7.27517524,17.3125 L3.875,17.3125 C1.80177483,17.3125 0.108826747,15.6843402 0.00504212595,13.636907 L0,13.4375 L0,5.1875 C0,3.25450338 1.56700338,1.6875 3.5,1.6875 L3.5,1.6875 L3.937,1.687 L3.9375,0.5 C3.9375,0.223857625 4.16135763,0 4.4375,0 C4.68295989,0 4.88710837,0.176875161 4.92944433,0.410124368 L4.9375,0.5 L4.937,1.687 L10.687,1.687 L10.6875,0.5 C10.6875,0.223857625 10.9113576,0 11.1875,0 Z M13.325,10.6875 C13.5704599,10.6875 13.7746084,10.8643752 13.8169443,11.0976244 L13.825,11.1875 L13.824,13.73 L15.3372852,15.0234119 C15.5239087,15.1828554 15.5642302,15.4499426 15.4449065,15.6547825 L15.3926507,15.7283478 C15.2332072,15.9149713 14.96612,15.9552928 14.7612801,15.8359691 L14.6877148,15.7837133 L12.825,14.1922859 L12.825,11.1875 C12.825,10.9113576 13.0488576,10.6875 13.325,10.6875 Z M3.937,2.687 L3.875,2.6875 C2.34388915,2.6875 1.09232499,3.88438163 1.0048805,5.39357191 L1,5.5625 L1,6.187 L14.625,6.187 L14.625,5.5625 C14.625,4.03138915 13.4281184,2.77982499 11.9189281,2.6923805 L11.75,2.6875 L11.687,2.687 L11.6875,3.875 C11.6875,4.15114237 11.4636424,4.375 11.1875,4.375 C10.9420401,4.375 10.7378916,4.19812484 10.6955557,3.96487563 L10.6875,3.875 L10.687,2.687 L4.937,2.687 L4.9375,3.875 C4.9375,4.15114237 4.71364237,4.375 4.4375,4.375 C4.19204011,4.375 3.98789163,4.19812484 3.94555567,3.96487563 L3.9375,3.875 L3.937,2.687 Z" id="Combined-Shape" fill="#50497F" fill-rule="nonzero"></path>
        </g>
    </g>
</svg>