<?xml version="1.0" encoding="UTF-8"?>
<svg width="768px" height="768px" viewBox="0 0 768 768" version="1.1" xmlns="http://www.w3.org/2000/svg" xmlns:xlink="http://www.w3.org/1999/xlink">
    <!-- Generator: Sketch 53.2 (72643) - https://sketchapp.com -->
    <title>Bookings-Green-BG-1024</title>
    <desc>Created with Sketch.</desc>
    <g id="Page-1" stroke="none" stroke-width="1" fill="none" fill-rule="evenodd">
        <g id="Bookings-Green-BG-1024" fill="#FFFFFF" fill-rule="nonzero">
            <g id="Group">
                <path d="M748.35,186.3825 C735.885,156.9075 718.0425,130.44 695.3175,107.715 C672.5925,84.99 646.125,67.155 616.65,54.69 C606.855,50.55 596.865,47.07 586.7175,44.2425 L586.7175,23.1975 C586.7175,10.77 576.645,0.6975 564.2175,0.6975 C551.79,0.6975 541.7175,10.77 541.7175,23.1975 L541.7175,36.1575 C534.63,35.55 527.49,35.2275 520.305,35.2275 L293.5725,35.2275 C281.145,35.2275 271.0725,45.3 271.0725,57.7275 C271.0725,70.155 281.145,80.2275 293.5725,80.2275 L520.3125,80.2275 C527.5125,80.2275 534.66,80.61 541.725,81.3525 L541.725,92.8425 C541.725,105.27 551.7975,115.3425 564.225,115.3425 C576.6525,115.3425 586.725,105.27 586.725,92.8425 L586.725,91.335 C615.3,101.2275 641.49,117.5325 663.5025,139.545 C701.7525,177.795 722.8125,228.645 722.8125,282.735 L722.8125,520.2375 C722.8125,574.3275 701.7525,625.1775 663.5025,663.4275 C625.2525,701.6775 574.4025,722.7375 520.3125,722.7375 L465.3225,722.7375 C452.895,722.7375 442.8225,732.81 442.8225,745.2375 C442.8225,757.665 452.895,767.7375 465.3225,767.7375 L520.3125,767.7375 C553.7175,767.7375 586.1325,761.19 616.6575,748.275 C646.1325,735.81 672.6,717.9675 695.325,695.2425 C718.05,672.5175 735.8925,646.0575 748.3575,616.5825 C761.2725,586.0575 767.82,553.6425 767.82,520.2375 L767.82,282.7275 C767.805,249.3225 761.2575,216.9075 748.35,186.3825 Z" id="Path"></path>
                <path d="M495.195,519.9825 C495.195,486.5775 488.6475,454.1625 475.7325,423.6375 C467.3775,403.8825 456.5925,385.4925 443.5575,368.6625 L486.375,328.8075 C495.4725,320.34 495.9825,306.105 487.515,297.0075 C479.0475,287.91 464.8125,287.4 455.715,295.8675 L412.9125,335.7075 C392.49,317.355 369.375,302.655 344.04,291.9375 C313.515,279.0225 281.1,272.475 247.695,272.475 C214.29,272.475 181.875,279.0225 151.35,291.9375 C121.875,304.4025 95.4075,322.245 72.6825,344.97 C62.5275,355.125 53.355,366.0375 45.195,377.6175 L45.195,282.7275 C45.195,235.5975 61.74,189.7125 91.77,153.51 C115.4325,124.9875 146.49,103.545 181.065,91.4625 L181.065,92.4075 C181.065,104.835 191.1375,114.9075 203.565,114.9075 C215.9925,114.9075 226.065,104.835 226.065,92.4075 L226.065,62.3325 C226.065,62.2275 226.065,62.115 226.065,62.01 L226.065,22.77 C226.065,10.3425 215.9925,0.27 203.565,0.27 C191.1375,0.27 181.065,10.3425 181.065,22.77 L181.065,44.325 C132.87,57.81 89.3775,85.92 57.135,124.7775 C39.105,146.5125 25.035,170.9175 15.33,197.31 C5.2875,224.64 0.195,253.3725 0.195,282.7275 L0.195,520.23 C0.195,553.635 6.7425,586.05 19.6575,616.575 C32.1225,646.05 49.965,672.5175 72.69,695.235 C95.415,717.9525 121.8825,735.8025 151.3575,748.2675 C181.8825,761.1825 214.2975,767.73 247.7025,767.73 C248.9325,767.73 250.1475,767.625 251.325,767.4375 C283.4475,766.98 314.625,760.47 344.0475,748.02 C373.5225,735.555 399.99,717.7125 422.715,694.9875 C445.44,672.2625 463.2825,645.795 475.7475,616.32 C488.6475,585.8025 495.195,553.3875 495.195,519.9825 Z M390.885,663.1725 C352.635,701.4225 301.785,722.4825 247.695,722.4825 C193.605,722.4825 142.755,701.4225 104.505,663.1725 C66.255,624.9225 45.195,574.0725 45.195,519.9825 C45.195,465.8925 66.255,415.0425 104.505,376.7925 C142.755,338.5425 193.605,317.4825 247.695,317.4825 C296.7225,317.4825 343.095,334.7925 379.8225,366.51 L248.7825,488.49 L191.34,427.1925 C182.8425,418.125 168.6075,417.6675 159.54,426.1575 C150.4725,434.655 150.0075,448.89 158.505,457.9575 L231.285,535.62 C235.71,540.345 241.7025,542.7375 247.71,542.7375 C253.2,542.7375 258.705,540.7425 263.0325,536.7075 L410.475,399.465 C436.26,434.1375 450.195,475.9875 450.195,519.9825 C450.195,574.0725 429.1275,624.9225 390.885,663.1725 Z" id="Shape"></path>
            </g>
        </g>
    </g>
</svg>